HIERARCHY
ROOT Pelvis
{
	OFFSET 0.000000 0.941512 0.000000
	CHANNELS 6 Xposition Yposition Zposition Zrotation Yrotation Xrotation 
	JOINT Pelvis_L_Hip
	{
		OFFSET 0.000000 0.000000 0.000000
		CHANNELS 3 Zrotation Yrotation Xrotation
		JOINT L_Hip
		{
			OFFSET 0.062321 -0.080322 -0.016990
			CHANNELS 3 Zrotation Yrotation Xrotation
			JOINT L_Knee
			{
				OFFSET 0.093051 -0.381305 -0.029784
				CHANNELS 3 Zrotation Yrotation Xrotation
				JOINT L_Ankle
				{
					OFFSET -0.010371 -0.431000 -0.033614
					CHANNELS 3 Zrotation Yrotation Xrotation
					End Site #name: L_Foot
					{
						OFFSET 0.069299 -0.038670 0.119418
					}
				}
			}
		}
	}
	JOINT Pelvis_R_Hip
	{
		OFFSET 0.000000 0.000000 0.000000
		CHANNELS 3 Zrotation Yrotation Xrotation
		JOINT R_Hip
		{
			OFFSET -0.055334 -0.094904 -0.002373
			CHANNELS 3 Zrotation Yrotation Xrotation
			JOINT R_Knee
			{
				OFFSET -0.064207 -0.384370 -0.019592
				CHANNELS 3 Zrotation Yrotation Xrotation
				JOINT R_Ankle
				{
					OFFSET 0.025418 -0.419734 -0.065953
					CHANNELS 3 Zrotation Yrotation Xrotation
					End Site #name: R_Foot
					{
						OFFSET -0.057233 -0.039888 0.132134
					}
				}
			}
		}
	}
	JOINT Pelvis_Spine1
	{
		OFFSET 0.000000 0.000000 0.000000
		CHANNELS 3 Zrotation Yrotation Xrotation
		JOINT Spine1
		{
			OFFSET -0.005562 0.124093 -0.043360
			CHANNELS 3 Zrotation Yrotation Xrotation
			JOINT Spine2
			{
				OFFSET 0.012244 0.139499 0.029894
				CHANNELS 3 Zrotation Yrotation Xrotation
				JOINT Spine3
				{
					OFFSET -0.002556 0.056561 0.009225
					CHANNELS 3 Zrotation Yrotation Xrotation
					JOINT Spine3_Neck
					{
						OFFSET 0.000000 0.000000 0.000000
						CHANNELS 3 Zrotation Yrotation Xrotation
						JOINT Neck
						{
							OFFSET -0.005205 0.217920 -0.024551
							CHANNELS 3 Zrotation Yrotation Xrotation
							End Site #name: Head
							{
								OFFSET 0.002365 0.091850 0.046637
							}
						}
					}
					JOINT Spine3_L_Collar
					{
						OFFSET 0.000000 0.000000 0.000000
						CHANNELS 3 Zrotation Yrotation Xrotation
						JOINT L_Collar
						{
							OFFSET 0.072225 0.116603 -0.009480
							CHANNELS 3 Zrotation Yrotation Xrotation
							JOINT L_Shoulder
							{
								OFFSET 0.115937 -0.058643 -0.021018
								CHANNELS 3 Zrotation Yrotation Xrotation
								JOINT L_Elbow
								{
									OFFSET 0.021994 -0.254722 -0.024492
									CHANNELS 3 Zrotation Yrotation Xrotation
									End Site #name: L_Wrist
									{
										OFFSET 0.048810 -0.240214 0.103329
									}
								}
							}
						}
					}
					JOINT Spine3_R_Collar
					{
						OFFSET 0.000000 0.000000 0.000000
						CHANNELS 3 Zrotation Yrotation Xrotation
						JOINT R_Collar
						{
							OFFSET -0.073372 0.120704 -0.024611
							CHANNELS 3 Zrotation Yrotation Xrotation
							JOINT R_Shoulder
							{
								OFFSET -0.108089 -0.054969 -0.020504
								CHANNELS 3 Zrotation Yrotation Xrotation
								JOINT R_Elbow
								{
									OFFSET -0.033684 -0.260739 0.009889
									CHANNELS 3 Zrotation Yrotation Xrotation
									End Site #name: R_Wrist
									{
										OFFSET -0.067980 -0.232763 0.118463
									}
								}
							}
						}
					}
				}
			}
		}
	}
}
MOTION
Frames: 12
Frame Time: 0.041667
0.002643 0.957069 0.001042 -3.519977 -2.177397 7.224798 0.000000 0.000000 0.000000 -3.654412 -2.800210 -11.448242 7.097660 -1.178194 7.140028 -5.843654 -14.250197 2.328541 0.000000 0.000000 0.000000 5.520254 1.842779 -10.105180 -2.880983 0.480090 0.366385 6.075278 12.291692 4.627317 0.000000 0.000000 0.000000 4.702082 1.537366 -20.109346 -6.378436 3.457065 21.697261 2.391695 2.600456 -26.770240 0.000000 0.000000 0.000000 2.627622 -2.690429 23.911255 0.000000 0.000000 0.000000 37.247510 -11.386613 -2.844327 3.198604 -4.292852 -49.202533 12.680557 -0.636033 -52.688839 0.000000 0.000000 0.000000 -35.062729 10.486269 -1.824138 -3.766157 3.732961 -32.537523 -22.696084 -5.934667 -57.027246 
0.002610 0.957036 0.001409 -3.507905 -2.149358 7.249580 0.000000 0.000000 0.000000 -3.666088 -2.799174 -11.444592 7.107477 -1.177536 7.115680 -5.852894 -14.286813 2.325287 0.000000 0.000000 0.000000 5.507884 1.839078 -10.090793 -2.872525 0.476630 0.341559 6.052380 12.259644 4.605031 0.000000 0.000000 0.000000 4.685243 1.546290 -20.173323 -6.400539 3.469780 21.741861 2.411993 2.619513 -26.789927 0.000000 0.000000 0.000000 2.525933 -2.615778 23.870135 0.000000 0.000000 0.000000 37.298755 -11.438858 -2.883889 3.136556 -4.310412 -49.144798 12.443058 -0.923823 -52.777148 0.000000 0.000000 0.000000 -35.083964 10.525361 -1.866814 -3.716906 3.752567 -32.540735 -22.528677 -5.700419 -57.090787 
0.002578 0.956947 0.001811 -3.503317 -2.126827 7.257797 0.000000 0.000000 0.000000 -3.668577 -2.795461 -11.431114 7.103317 -1.176598 7.111834 -5.844108 -14.298875 2.306142 0.000000 0.000000 0.000000 5.499060 1.832456 -10.062052 -2.857324 0.472849 0.325822 6.025940 12.241226 4.568134 0.000000 0.000000 0.000000 4.713404 1.549149 -20.205963 -6.443736 3.491306 21.794050 2.393733 2.615794 -26.832264 0.000000 0.000000 0.000000 2.433838 -2.545337 23.810841 0.000000 0.000000 0.000000 37.240266 -11.525668 -2.977963 3.018048 -4.348626 -49.068556 12.277040 -1.118188 -52.807514 0.000000 0.000000 0.000000 -35.058374 10.643631 -1.992170 -3.662206 3.773507 -32.538401 -22.254781 -5.350451 -56.953458 
0.002518 0.956893 0.002326 -3.497501 -2.124475 7.269071 0.000000 0.000000 0.000000 -3.672111 -2.791215 -11.415744 7.098053 -1.176978 7.126096 -5.822241 -14.297992 2.273334 0.000000 0.000000 0.000000 5.492307 1.826502 -10.036292 -2.845867 0.470863 0.323042 6.004790 12.238867 4.531514 0.000000 0.000000 0.000000 4.743213 1.551762 -20.236961 -6.480753 3.512912 21.856911 2.370405 2.588813 -26.878465 0.000000 0.000000 0.000000 2.435094 -2.540212 23.754811 0.000000 0.000000 0.000000 37.085573 -11.543318 -3.022905 2.825234 -4.414973 -48.983180 12.255617 -1.138532 -52.803423 0.000000 0.000000 0.000000 -35.025101 10.717160 -2.066418 -3.580409 3.818750 -32.634144 -21.978309 -5.018516 -56.725522 
0.002404 0.956860 0.003062 -3.501759 -2.142365 7.278375 0.000000 0.000000 0.000000 -3.669711 -2.775273 -11.356787 7.099995 -1.174952 7.097471 -5.803172 -14.291972 2.247806 0.000000 0.000000 0.000000 5.500534 1.815617 -9.986373 -2.847489 0.469146 0.301419 6.010948 12.286733 4.514315 0.000000 0.000000 0.000000 4.757806 1.555063 -20.266878 -6.493507 3.525480 21.916289 2.359530 2.567376 -26.906895 0.000000 0.000000 0.000000 2.547070 -2.618253 23.740532 0.000000 0.000000 0.000000 36.970240 -11.495174 -2.996422 2.704084 -4.445029 -48.818263 12.375387 -0.999968 -52.791873 0.000000 0.000000 0.000000 -35.017679 10.733931 -2.076600 -3.514542 3.853573 -32.704572 -21.849007 -4.866263 -56.619550 
0.002266 0.956808 0.004078 -3.511291 -2.171281 7.314894 0.000000 0.000000 0.000000 -3.663960 -2.753878 -11.278961 7.115366 -1.170189 7.015083 -5.792542 -14.288519 2.234045 0.000000 0.000000 0.000000 5.501970 1.804914 -9.939578 -2.821874 0.460912 0.254382 6.024337 12.326420 4.515088 0.000000 0.000000 0.000000 4.742234 1.565758 -20.343258 -6.474520 3.525985 21.966184 2.352137 2.554110 -26.924610 0.000000 0.000000 0.000000 2.743676 -2.759852 23.738305 0.000000 0.000000 0.000000 36.857281 -11.387731 -2.908293 2.754987 -4.407393 -48.624130 12.554620 -0.795466 -52.743615 0.000000 0.000000 0.000000 -34.940714 10.670955 -2.019408 -3.547110 3.835842 -32.662893 -21.841918 -4.851443 -56.622152 
0.002225 0.956653 0.005504 -3.522455 -2.174398 7.395991 0.000000 0.000000 0.000000 -3.669367 -2.734367 -11.209398 7.145147 -1.162034 6.869490 -5.809297 -14.284312 2.261665 0.000000 0.000000 0.000000 5.490444 1.787308 -9.864352 -2.780810 0.440176 0.091013 6.074439 12.355925 4.588994 0.000000 0.000000 0.000000 4.720867 1.586164 -20.493926 -6.427595 3.509822 21.975612 2.365698 2.565292 -26.896617 0.000000 0.000000 0.000000 2.827709 -2.821451 23.724838 0.000000 0.000000 0.000000 36.897485 -11.290313 -2.800886 2.909162 -4.333631 -48.479571 12.676073 -0.659013 -52.698840 0.000000 0.000000 0.000000 -34.927398 10.603950 -1.956176 -3.641085 3.778818 -32.510685 -22.014197 -5.076201 -56.602766 
0.002146 0.956610 0.007054 -3.520533 -2.158353 7.432840 0.000000 0.000000 0.000000 -3.673573 -2.701133 -11.087486 7.153949 -1.151870 6.735339 -5.830718 -14.324163 2.275773 0.000000 0.000000 0.000000 5.470634 1.751202 -9.703833 -2.738561 0.416145 -0.111609 6.115503 12.405039 4.636999 0.000000 0.000000 0.000000 4.670996 1.614153 -20.692005 -6.382738 3.503019 22.062143 2.419184 2.600999 -26.876450 0.000000 0.000000 0.000000 2.831005 -2.835545 23.835318 0.000000 0.000000 0.000000 36.957606 -11.228851 -2.720717 3.080788 -4.266581 -48.462109 12.694806 -0.638623 -52.667712 0.000000 0.000000 0.000000 -34.928206 10.484858 -1.844591 -3.712635 3.737691 -32.407781 -22.239857 -5.376700 -56.568369 
0.002124 0.956536 0.008549 -3.516726 -2.116614 7.466627 0.000000 0.000000 0.000000 -3.681372 -2.670822 -10.976464 7.169240 -1.142998 6.606787 -5.863658 -14.382118 2.298541 0.000000 0.000000 0.000000 5.452677 1.719500 -9.562510 -2.710901 0.398449 -0.268388 6.139952 12.424075 4.672373 0.000000 0.000000 0.000000 4.670722 1.633257 -20.839993 -6.348578 3.489057 22.068770 2.426712 2.613165 -26.887694 0.000000 0.000000 0.000000 2.723424 -2.767002 23.930437 0.000000 0.000000 0.000000 37.074661 -11.240429 -2.706721 3.139246 -4.247143 -48.488175 12.680930 -0.659986 -52.685526 0.000000 0.000000 0.000000 -34.941007 10.433270 -1.798819 -3.759149 3.704638 -32.292125 -22.450656 -5.665405 -56.461755 
0.002051 0.956501 0.009729 -3.495073 -2.065864 7.458173 0.000000 0.000000 0.000000 -3.708952 -2.651320 -10.903240 7.172961 -1.143563 6.607994 -5.860372 -14.424549 2.273199 0.000000 0.000000 0.000000 5.435683 1.699074 -9.470447 -2.709514 0.398616 -0.265622 6.107381 12.450012 4.601258 0.000000 0.000000 0.000000 4.688078 1.641281 -20.908098 -6.345549 3.488689 22.089332 2.413075 2.607792 -26.898911 0.000000 0.000000 0.000000 2.551424 -2.650551 24.027442 0.000000 0.000000 0.000000 37.119966 -11.257389 -2.708516 3.063693 -4.279986 -48.542934 12.707239 -0.645423 -52.817062 0.000000 0.000000 0.000000 -34.927689 10.367393 -1.743064 -3.726481 3.710119 -32.243272 -22.625693 -5.899676 -56.447825 
0.001988 0.956490 0.010499 -3.471564 -2.032728 7.405052 0.000000 0.000000 0.000000 -3.743083 -2.628691 -10.816744 7.186371 -1.147095 6.628390 -5.857375 -14.463754 2.249996 0.000000 0.000000 0.000000 5.434937 1.683402 -9.396606 -2.736915 0.409740 -0.186527 6.056977 12.455863 4.507860 0.000000 0.000000 0.000000 4.759179 1.626461 -20.817021 -6.391717 3.504933 22.090332 2.379466 2.585671 -26.913013 0.000000 0.000000 0.000000 2.349881 -2.500827 24.005916 0.000000 0.000000 0.000000 37.103126 -11.314163 -2.767382 2.916729 -4.319824 -48.397521 12.855962 -0.521289 -53.116083 0.000000 0.000000 0.000000 -34.932283 10.391111 -1.767934 -3.684416 3.705999 -32.106595 -22.819524 -6.149123 -56.485442 
0.001922 0.956502 0.011100 -3.454776 -2.021794 7.400432 0.000000 0.000000 0.000000 -3.766586 -2.610929 -10.750236 7.199075 -1.145415 6.588373 -5.828338 -14.473414 2.201654 0.000000 0.000000 0.000000 5.443880 1.678645 -9.374045 -2.768837 0.419147 -0.134484 6.015342 12.444285 4.438688 0.000000 0.000000 0.000000 4.838790 1.609254 -20.712887 -6.460892 3.523946 22.036381 2.353651 2.572827 -26.932193 0.000000 0.000000 0.000000 2.174477 -2.370770 24.011526 0.000000 0.000000 0.000000 37.035125 -11.358110 -2.823189 2.695451 -4.378327 -48.170006 12.929228 -0.463522 -53.296786 0.000000 0.000000 0.000000 -35.001442 10.460321 -1.825289 -3.599178 3.706747 -31.890496 -22.971170 -6.342075 -56.532417 
